<svg width="30" height="31" viewBox="0 0 30 31" fill="none" xmlns="http://www.w3.org/2000/svg">
<path d="M1.73681 18.3362C1.73681 18.3362 -4.2185 8.56132 5.92605 5.43992C9.7703 -2.74142 16.3718 0.0870017 19.192 2.52388C28.3262 2.26103 29.049 9.12263 28.2687 12.5863C32.8358 20.9319 27.2967 24.6612 23.9562 25.4826C20.112 33.4668 13.5379 30.6712 10.7314 28.2754C1.69574 28.7683 0.970148 21.8546 1.73681 18.3362Z" fill="#0F2C1E"/>
<path d="M5.17497 15.3028C12.6691 13.625 14.7757 8.12561 14.8922 5.58561C15.7311 12.8001 21.9063 15.0698 24.8891 15.3028C17.6186 15.6384 15.1951 21.9674 14.8922 25.09C13.9974 17.484 8.0412 15.3961 5.17497 15.3028Z" fill="#3BC753"/>
</svg>
